HIERARCHY
ROOT Hips
{
	OFFSET 0.000000 0.000000 0.000000
	CHANNELS 6 Xposition Yposition Zposition Xrotation Yrotation Zrotation
	JOINT LeftUpLeg_virtual
	{
		OFFSET 0.000000 0.000000 0.000000
		CHANNELS 3 Xrotation Yrotation Zrotation
		JOINT LeftUpLeg
		{
			OFFSET 13.026900 -6.336304 -1.092800
			CHANNELS 3 Xrotation Yrotation Zrotation
			JOINT LeftLeg
			{
				OFFSET 0.524474 -46.096886 9.782700
				CHANNELS 3 Xrotation Yrotation Zrotation
				JOINT LeftFoot
				{
					OFFSET -0.524474 -53.427422 -12.948200
					CHANNELS 3 Xrotation Yrotation Zrotation
					JOINT LeftToeBase
					{
						OFFSET 0.192200 -14.009700 16.364100
						CHANNELS 3 Xrotation Yrotation Zrotation
						JOINT LeftToe_End
						{
							OFFSET -1.784700 -0.561700 9.474800
							CHANNELS 3 Xrotation Yrotation Zrotation
							End Site
							{
								OFFSET 0 0 0
							}
						}
					}
				}
			}
		}
	}
	JOINT RightUpLeg_virtual
	{
		OFFSET 0.000000 0.000000 0.000000
		CHANNELS 3 Xrotation Yrotation Zrotation
		JOINT RightUpLeg
		{
			OFFSET -12.883000 -6.336304 -1.092800
			CHANNELS 3 Xrotation Yrotation Zrotation
			JOINT RightLeg
			{
				OFFSET -0.524587 -46.096825 9.782800
				CHANNELS 3 Xrotation Yrotation Zrotation
				JOINT RightFoot
				{
					OFFSET 0.524587 -53.427383 -12.948300
					CHANNELS 3 Xrotation Yrotation Zrotation
					JOINT RightToeBase
					{
						OFFSET -0.192200 -14.009700 16.364100
						CHANNELS 3 Xrotation Yrotation Zrotation
						JOINT RightToe_End
						{
							OFFSET 1.784700 -0.561700 9.474800
							CHANNELS 3 Xrotation Yrotation Zrotation
							End Site
							{
								OFFSET 0 0 0
							}
						}
					}
				}
			}
		}
	}
	JOINT Spine_virtual
	{
		OFFSET 0.000000 0.000000 0.000000
		CHANNELS 3 Xrotation Yrotation Zrotation
		JOINT Spine
		{
			OFFSET 0.072000 7.257294 -0.789700
			CHANNELS 3 Xrotation Yrotation Zrotation
			JOINT Spine1
			{
				OFFSET 0.000000 12.508769 -0.658067
				CHANNELS 3 Xrotation Yrotation Zrotation
				JOINT Spine1_split
				{
					OFFSET 0.000000 12.508769 -0.658067
					CHANNELS 3 Xrotation Yrotation Zrotation
					JOINT Spine2
					{
						OFFSET 0.000000 12.508769 -0.658067
						CHANNELS 3 Xrotation Yrotation Zrotation
						JOINT Neck_virtual
						{
							OFFSET 0.000000 0.000000 0.000000
							CHANNELS 3 Xrotation Yrotation Zrotation
							JOINT Neck
							{
								OFFSET 0.000000 14.033295 7.520400
								CHANNELS 3 Xrotation Yrotation Zrotation
								JOINT Head
								{
									OFFSET 0.000000 8.198502 5.703100
									CHANNELS 3 Xrotation Yrotation Zrotation
									JOINT HeadTop_End
									{
										OFFSET 0.000000 17.760803 13.332701
										CHANNELS 3 Xrotation Yrotation Zrotation
										End Site
										{
											OFFSET 0 0 0
										}
									}
								}
							}
						}
						JOINT LeftShoulder_virtual
						{
							OFFSET 0.000000 0.000000 0.000000
							CHANNELS 3 Xrotation Yrotation Zrotation
							JOINT LeftShoulder
							{
								OFFSET 6.292450 5.785301 -0.669000
								CHANNELS 3 Xrotation Yrotation Zrotation
								JOINT LeftShoulder_split
								{
									OFFSET 6.292450 5.785301 -0.669000
									CHANNELS 3 Xrotation Yrotation Zrotation
									JOINT LeftArm
									{
										OFFSET 13.907140 -6.093903 1.965100
										CHANNELS 3 Xrotation Yrotation Zrotation
										JOINT LeftForeArm
										{
											OFFSET 34.140198 0.000000 0.000000
											CHANNELS 3 Xrotation Yrotation Zrotation
											JOINT LeftHand
											{
												OFFSET 40.960209 0.000000 0.000000
												CHANNELS 3 Xrotation Yrotation Zrotation
												End Site
												{
													OFFSET 0 0 0
												}
											}
										}
									}
								}
							}
						}
						JOINT RightShoulder_virtual
						{
							OFFSET 0.000000 0.000000 0.000000
							CHANNELS 3 Xrotation Yrotation Zrotation
							JOINT RightShoulder
							{
								OFFSET -6.292450 5.785301 -0.669000
								CHANNELS 3 Xrotation Yrotation Zrotation
								JOINT RightShoulder_split
								{
									OFFSET -6.292450 5.785301 -0.669000
									CHANNELS 3 Xrotation Yrotation Zrotation
									JOINT RightArm
									{
										OFFSET -13.907140 -6.093903 1.965100
										CHANNELS 3 Xrotation Yrotation Zrotation
										JOINT RightForeArm
										{
											OFFSET -34.140198 0.000000 0.000000
											CHANNELS 3 Xrotation Yrotation Zrotation
											JOINT RightHand
											{
												OFFSET -40.960209 0.000000 0.000000
												CHANNELS 3 Xrotation Yrotation Zrotation
												End Site
												{
													OFFSET 0 0 0
												}
											}
										}
									}
								}
							}
						}
					}
				}
			}
		}
	}
}
MOTION
Frames: 8
Frame Time: 0.03333333
-16.795900 90.655769 -2.742142 0.000000 0.000000 0.000000 -7.174819 -47.233736 2.030368 -26.062629 8.478210 22.144563 47.630802 -8.622789 9.967200 -17.255880 -9.917147 -23.866281 -4.288503 0.137470 -0.572162 0.000000 0.000000 0.000000 -8.493802 -44.071164 2.590485 -27.976667 -4.993808 -34.083528 48.873914 -1.490589 -4.922510 -8.254052 -10.012316 29.449109 -3.037818 0.110427 0.003559 0.000000 0.000000 0.000000 -6.190168 -43.858837 3.218144 9.741157 6.976345 -1.965978 2.240047 0.576335 -2.241510 0.583070 -1.305796 0.752196 0.000000 0.000000 0.000000 2.824619 0.387428 -1.968992 1.068025 13.212139 1.921093 11.074065 17.198649 0.629261 0.000000 0.000000 0.000000 3.058279 0.280640 -2.320770 1.903004 -2.773409 -13.226715 -1.810224 -1.991156 0.427032 -68.891508 -0.603971 -39.959359 178.614501 -75.792164 179.757123 0.000000 0.000000 0.000000 3.782111 0.478779 -2.056687 3.413674 11.269889 -12.567057 -2.514790 -0.080250 0.729408 -66.027323 20.712065 88.115669 -19.518237 84.872217 17.305415 0.000000 0.000000 0.000000 
-18.305012 91.187553 -3.176682 0.000000 0.000000 0.000000 -7.831316 -48.628201 1.651834 -25.364363 7.279630 22.519617 47.858172 -8.011825 10.209211 -14.512887 -9.279636 -23.190924 -5.191973 0.244041 -1.356895 0.000000 0.000000 0.000000 -9.333678 -44.727070 2.184556 -27.825771 -6.074688 -34.025527 50.231793 -1.983217 -4.590963 -10.524206 -9.687329 28.534563 -1.878308 0.155720 0.429951 0.000000 0.000000 0.000000 -6.884272 -44.532782 3.051573 9.683648 6.685755 -1.993123 2.240436 0.112130 -2.354407 0.625579 -0.935151 0.919696 0.000000 0.000000 0.000000 2.794350 -0.123847 -2.061777 1.511615 13.297350 1.843399 11.402766 17.596359 -0.208403 0.000000 0.000000 0.000000 3.076252 -0.204257 -2.409231 1.992331 -1.503860 -12.856749 -1.540732 -2.014709 0.566090 -68.454826 -1.145839 -41.400833 178.908377 -74.781433 -179.749515 0.000000 0.000000 0.000000 3.757552 -0.011533 -2.165677 3.319077 10.401800 -13.397197 -2.234143 -0.003314 0.529338 -66.807972 19.493208 88.443423 -22.397874 85.275076 20.029479 0.000000 0.000000 0.000000 
-19.738049 92.347527 -3.408222 0.000000 0.000000 0.000000 -8.269253 -49.277578 1.371970 -25.283086 6.270440 22.746461 48.111808 -7.753870 10.288887 -10.787591 -9.570266 -22.815277 -7.680185 0.293264 -1.788367 0.000000 0.000000 0.000000 -10.002573 -45.335667 1.844290 -27.523490 -7.505414 -33.818876 51.071824 -2.468092 -4.183398 -12.454030 -9.195962 27.542127 -1.067556 0.266872 0.557071 0.000000 0.000000 0.000000 -7.136474 -45.098226 2.974267 9.481199 6.406799 -1.887251 2.163375 -0.369679 -2.412682 0.584870 -0.554304 0.889891 0.000000 0.000000 0.000000 2.730151 -0.614304 -2.100465 1.731346 13.356250 2.004865 11.485715 18.163640 -1.221739 0.000000 0.000000 0.000000 3.055515 -0.665100 -2.443294 2.046432 -0.815059 -12.443077 -1.106488 -1.707331 0.479581 -66.819966 -1.702776 -42.992260 179.280322 -73.880353 -179.318120 0.000000 0.000000 0.000000 3.649855 -0.477358 -2.211951 3.189636 9.447478 -13.757313 -1.939101 -0.066690 0.286356 -67.566390 18.071439 88.929282 -34.627635 86.859502 32.198919 0.000000 0.000000 0.000000 
-21.094227 93.771446 -3.447525 0.000000 0.000000 0.000000 -8.396449 -49.229729 1.320963 -25.682377 6.168118 22.559572 48.136530 -7.483123 9.944786 -7.778213 -10.444458 -22.178693 -10.599084 0.254231 -1.783879 0.000000 0.000000 0.000000 -10.359527 -45.885098 1.654406 -27.014851 -8.917973 -33.487987 50.964478 -2.696508 -3.915125 -13.396088 -8.472327 27.206708 -1.377247 0.377170 0.429728 0.000000 0.000000 0.000000 -6.998666 -45.513700 3.042520 9.207190 6.223852 -1.687500 2.036021 -0.726799 -2.419649 0.504602 -0.267492 0.777535 0.000000 0.000000 0.000000 2.667772 -0.940301 -2.109007 1.666143 13.356986 2.332511 11.197825 18.754190 -2.242085 0.000000 0.000000 0.000000 2.994714 -0.967175 -2.433197 2.051230 -0.731933 -12.164208 -0.649347 -1.223306 0.137705 -63.872200 -2.245079 -44.520792 179.656296 -73.248205 -179.021307 0.000000 0.000000 0.000000 3.511945 -0.791035 -2.215186 3.031470 8.504867 -13.472793 -1.679109 -0.324869 0.078514 -67.443719 17.044163 89.318370 -105.331434 88.310781 102.976201 0.000000 0.000000 0.000000 
-22.363056 95.165611 -3.298786 0.000000 0.000000 0.000000 -8.260563 -48.709224 1.478171 -26.618154 6.955980 21.916059 48.280005 -7.250902 9.289439 -6.376541 -11.596966 -21.440771 -12.080879 0.104156 -1.406537 0.000000 0.000000 0.000000 -10.190705 -46.292492 1.734476 -26.111038 -10.172478 -32.819278 49.902503 -2.864588 -3.848669 -13.717782 -7.966323 27.011136 -1.986253 0.436280 0.219416 0.000000 0.000000 0.000000 -6.552191 -45.740705 3.216186 8.965395 6.166650 -1.461404 1.877832 -0.852079 -2.356897 0.394886 -0.095501 0.628850 0.000000 0.000000 0.000000 2.611920 -1.015967 -2.083334 1.277043 13.268724 2.691223 10.597692 19.244739 -3.165755 0.000000 0.000000 0.000000 2.897474 -1.029441 -2.367591 2.016161 -1.174280 -12.079231 -0.414530 -0.646079 -0.158769 -59.779489 -2.524693 -45.698887 -179.804757 -72.967703 -178.628052 0.000000 0.000000 0.000000 3.384877 -0.867183 -2.149881 2.886923 7.748805 -12.551793 -1.481076 -0.579268 -0.059289 -66.057635 16.816243 89.437024 -162.223167 85.649855 160.084102 0.000000 0.000000 0.000000 
-23.595106 96.137955 -2.969631 0.000000 0.000000 0.000000 -7.860321 -48.085952 1.780017 -28.120159 8.227654 20.905747 48.855442 -7.212905 8.485068 -6.613051 -12.808550 -20.910332 -11.150973 -0.124255 -0.724300 0.000000 0.000000 0.000000 -9.571931 -46.474246 2.039071 -24.920640 -11.133380 -31.825229 48.380600 -3.171204 -3.878674 -14.247179 -7.993136 26.292721 -1.809846 0.436051 0.099207 0.000000 0.000000 0.000000 -5.908695 -45.854885 3.440561 8.813395 6.265902 -1.259892 1.715763 -0.707592 -2.197627 0.383701 -0.099922 0.500747 0.000000 0.000000 0.000000 2.530253 -0.815165 -1.978105 0.682964 13.100051 2.929821 9.779653 19.540688 -3.876080 0.000000 0.000000 0.000000 2.771710 -0.833489 -2.222383 1.954577 -1.862380 -12.066893 -0.349032 -0.147497 -0.264281 -55.400884 -2.319676 -46.456037 -179.295252 -73.103603 -178.283783 0.000000 0.000000 0.000000 3.305909 -0.662338 -2.002425 2.815951 7.374060 -11.148559 -1.481926 -0.809015 -0.028379 -63.455538 17.692259 89.228813 -172.846447 82.211900 171.018702 0.000000 0.000000 0.000000 
-24.837990 96.514679 -2.529716 0.000000 0.000000 0.000000 -7.235655 -47.882129 2.092462 -30.049663 9.552658 19.862713 49.698482 -7.273173 7.694384 -7.984198 -13.942246 -20.416101 -8.982594 -0.372537 0.271707 0.000000 0.000000 0.000000 -8.710787 -46.395781 2.392127 -23.791815 -11.686892 -30.661324 47.444485 -3.698334 -3.897471 -15.230830 -8.561491 25.037631 -1.104485 0.377911 0.126348 0.000000 0.000000 0.000000 -5.239487 -45.860093 3.626346 8.785325 6.498337 -1.145552 1.581993 -0.331292 -1.937075 0.419750 -0.348703 0.597912 0.000000 0.000000 0.000000 2.474516 -0.390959 -1.771872 0.026947 12.908916 2.999833 8.919892 19.614478 -4.329059 0.000000 0.000000 0.000000 2.634026 -0.426416 -1.975113 1.883811 -2.420741 -12.064032 -0.652636 0.091119 -0.256741 -51.578163 -1.385759 -46.848916 -178.982949 -73.358547 -178.116922 0.000000 0.000000 0.000000 3.234967 -0.250228 -1.752771 2.803510 7.415511 -9.542903 -1.637407 -0.871336 0.176273 -60.163660 19.473349 88.686721 -176.641259 79.225830 175.147866 0.000000 0.000000 0.000000 
-26.150686 96.342293 -2.146633 0.000000 0.000000 0.000000 -6.515736 -48.244133 2.259239 -31.661595 10.522750 18.807580 50.478230 -7.210609 7.092428 -9.903412 -14.694587 -19.593065 -7.362141 -0.602311 1.472450 0.000000 0.000000 0.000000 -7.863480 -46.277475 2.616009 -22.987792 -11.731213 -29.504570 47.644183 -4.180978 -3.928747 -16.161006 -9.388121 23.929744 -0.825576 0.286372 0.210591 0.000000 0.000000 0.000000 -4.599130 -45.891758 3.634993 8.851634 6.799122 -1.145462 1.470165 0.173683 -1.624526 0.557047 -0.768700 0.744641 0.000000 0.000000 0.000000 2.453611 0.137358 -1.478629 -0.511633 12.762802 2.903560 8.281853 19.594933 -4.556581 0.000000 0.000000 0.000000 2.487413 0.073878 -1.668516 1.818312 -2.614867 -11.872999 -1.143438 0.192687 -0.112532 -49.113558 0.285638 -47.157293 -178.895154 -73.448965 -178.129025 0.000000 0.000000 0.000000 3.150740 0.257642 -1.424678 2.854582 7.839235 -8.047061 -1.987083 -0.815478 0.512904 -56.886235 21.666521 87.885349 -178.332783 76.996934 177.134536 0.000000 0.000000 0.000000 
